HIERARCHY
ROOT Hips
{
  OFFSET -79.7045 102.342 5.7837
  CHANNELS 6 Xposition Yposition Zposition Zrotation Xrotation Yrotation
  JOINT RightUpLeg
  {
    OFFSET -8.9458 -8.66707 0.101652
    CHANNELS 3 Zrotation Xrotation Yrotation
    JOINT RightLeg
    {
      OFFSET 0 -44.4227 1.3727
      CHANNELS 3 Zrotation Xrotation Yrotation
      JOINT RightFoot
      {
        OFFSET 0.253549 -42.0924 -1.46059
        CHANNELS 3 Zrotation Xrotation Yrotation
        JOINT RightToes
        {
          OFFSET 0.04 -4.41509 8.4991
          CHANNELS 3 Zrotation Xrotation Yrotation
          End Site
          {
            OFFSET -0.08 -0.137448 9.77979
          }
        }
      }
    }
  }
  JOINT Spine
  {
    OFFSET 0 11.8905 0
    CHANNELS 3 Zrotation Xrotation Yrotation
    JOINT Spine1
    {
      OFFSET 0 25.6574 0.127663
      CHANNELS 3 Zrotation Xrotation Yrotation
      JOINT HEad
      {
        OFFSET 0 8.73416 0.011341
        CHANNELS 3 Zrotation Xrotation Yrotation
        End Site
        {
          OFFSET -0.29 12.7742 2.51395
        }
      }
      JOINT LeftShoulder1
      {
        OFFSET 8.99 -0.362252 -0.22
        CHANNELS 3 Zrotation Xrotation Yrotation
        JOINT LeftArm
        {
          OFFSET 10.2827 -0.00337999 0.322123
          CHANNELS 3 Zrotation Xrotation Yrotation
          JOINT LeftForeArm
          {
            OFFSET 26.2597 0.099144 -1.42434
            CHANNELS 3 Zrotation Xrotation Yrotation
            JOINT LeftHand
            {
              OFFSET 22.0902 0.085362 1.02216
              CHANNELS 3 Zrotation Xrotation Yrotation
              End Site
              {
                OFFSET 13.419 -0.6 1.50291
              }
            }
          }
        }
      }
      JOINT RightShoulder
      {
        OFFSET -8.99 -0.362252 -0.22
        CHANNELS 3 Zrotation Xrotation Yrotation
        JOINT RightArm
        {
          OFFSET -10.2827 -0.00338 0.322123
          CHANNELS 3 Zrotation Xrotation Yrotation
          JOINT RightForeArm
          {
            OFFSET -26.364 0.099144 -1.42434
            CHANNELS 3 Zrotation Xrotation Yrotation
            JOINT RightHand
            {
              OFFSET -22.0324 0.085362 1.02216
              CHANNELS 3 Zrotation Xrotation Yrotation
              End Site
              {
                OFFSET -13.3284 -0.6 1.50291
              }
            }
          }
        }
      }
    }
  }
  JOINT LeftUpLeg
  {
    OFFSET 8.9458 -8.66707 0.101652
    CHANNELS 3 Zrotation Xrotation Yrotation
    JOINT LeftLeg
    {
      OFFSET 0 -44.4227 1.3727
      CHANNELS 3 Zrotation Xrotation Yrotation
      JOINT LeftFoot
      {
        OFFSET -0.253549 -42.0924 -1.46059
        CHANNELS 3 Zrotation Xrotation Yrotation
        JOINT LeftToes
        {
          OFFSET -0.04 -4.41509 8.4991
          CHANNELS 3 Zrotation Xrotation Yrotation
          End Site
          {
            OFFSET 0.08 -0.047448 9.77979
          }
        }
      }
    }
  }
}
MOTION
Frames:	10
Frame Time:	0.0333333
-214.365 104.827 51.7877 0.419369 0.556134 92.1211 0.722859 1.25366 -1.21162 -1.03334 9.04145 -11.6338 -1.71682 -4.93314 -0.118256 0.0462048 0.000530888 0.662642 -3.7832 -3.55445 -1.07594 0.959005 9.39191 -1.13771 -1.46501 5.56923 -1.08192 -28.5676 -3.36284 13.1878 -65.0409 -55.4799 -46.787 -134.588 85.6369 137.991 7.31315 9.10784 -8.74056 26.5184 -0.692497 -6.28761 40.5914 -35.1755 17.7825 0.158663 49.33 9.00377 -1.34967 9.86018 2.85091 -2.13029 -0.796241 0.99564 1.24494 9.1658 16.4527 4.46471 -5.60651 -0.0653084 -1.34285e-009 8.75234e-006 -1.47603e-008 
-214.342 104.827 51.7883 0.446453 0.516046 92.2819 0.779155 1.39165 -1.19388 -1.0152 8.87715 -11.8173 -1.70198 -4.87459 -0.118246 0.0462048 0.000530888 0.662642 -3.81637 -3.5685 -1.15384 1.03049 9.43204 -1.23714 -1.583 5.58148 -1.12025 -28.603 -3.38431 13.2397 -64.7898 -55.4403 -46.6602 -133.942 85.6314 137.241 7.16147 9.12963 -8.68151 26.4712 -0.673235 -6.2325 40.6566 -35.4737 17.7677 -0.115521 49.5834 8.92698 -1.11965 9.8755 3.71005 -2.05399 -0.779016 1.0632 1.21494 9.19782 16.2134 4.51512 -5.63901 -0.065312 -1.34285e-009 8.75234e-006 -1.47603e-008 
-214.32 104.827 51.7863 0.446024 0.466719 92.4344 0.834866 1.49262 -1.17787 -0.990806 8.72491 -11.9924 -1.69312 -4.82344 -0.118237 0.0462048 0.000530888 0.662642 -3.80175 -3.64702 -1.22137 1.04727 9.5224 -1.31061 -1.73014 5.57788 -1.15476 -28.5644 -3.38686 13.2575 -64.603 -55.4514 -46.5888 -133.017 85.6668 136.255 6.95145 9.15518 -8.68357 26.4347 -0.65889 -6.19147 40.7268 -35.8145 17.7852 -0.429463 50.0073 8.87131 -0.970112 9.88694 4.31757 -1.97783 -0.776372 1.12173 1.18513 9.18942 16.0077 4.56928 -5.67317 -0.0653159 -1.34285e-009 8.75234e-006 -1.47603e-008 
-214.321 104.827 51.7735 0.411666 0.446768 92.4506 0.841877 1.45888 -1.17671 -0.975912 8.71826 -12.0143 -1.68997 -4.82143 -0.118236 0.0462048 0.000530888 0.662642 -3.7277 -3.73851 -1.20191 0.980896 9.60481 -1.27399 -1.82054 5.53154 -1.16412 -28.4431 -3.34409 13.1677 -64.7293 -55.5468 -46.6746 -132.122 85.7693 135.44 6.88981 9.16115 -8.71315 26.4129 -0.657507 -6.18895 40.7195 -35.9206 17.7882 -0.536898 50.2143 8.92395 -1.05018 9.88071 3.98795 -1.9666 -0.805906 1.11996 1.18388 9.16013 16.0125 4.57041 -5.678 -0.0653164 -1.34285e-009 8.75234e-006 -1.47603e-008 
-214.337 104.827 51.7594 0.39754 0.45876 92.4189 0.812747 1.40378 -1.19095 -0.969878 8.77174 -11.9709 -1.69078 -4.83397 -0.118238 0.0462048 0.000530888 0.662642 -3.70638 -3.70164 -1.13681 0.965298 9.57122 -1.20583 -1.87451 5.47899 -1.1505 -28.3494 -3.28865 13.0334 -64.9805 -55.6212 -46.7551 -130.355 85.9358 133.78 7.00586 9.15552 -8.5521 26.375 -0.655866 -6.18692 40.6205 -35.8721 17.6983 -0.500469 50.028 9.01126 -1.09753 9.87706 3.57084 -1.99789 -0.834116 1.09477 1.19487 9.17456 16.0745 4.53969 -5.65887 -0.0653143 -1.34285e-009 8.75234e-006 -1.47603e-008 
-214.35 104.827 51.7503 0.431815 0.481332 92.4505 0.782718 1.4313 -1.21817 -0.962228 8.77983 -11.978 -1.70214 -4.83327 -0.118238 0.0462048 0.000530888 0.662642 -3.79687 -3.53742 -1.10588 1.07993 9.45777 -1.20505 -1.89427 5.51002 -1.04908 -28.3759 -3.27701 12.9926 -65.2859 -55.5775 -46.8645 -128.239 86.0894 131.729 7.22142 9.14514 -8.26244 26.3198 -0.647845 -6.16663 40.5596 -35.7632 17.6105 -0.398048 49.7733 9.02337 -1.06407 9.87967 3.59353 -2.02933 -0.820735 1.0763 1.20516 9.21348 16.0493 4.52549 -5.64022 -0.0653122 -1.34285e-009 8.75234e-006 -1.47603e-008 
-214.358 104.827 51.7416 0.476008 0.48326 92.532 0.777476 1.49379 -1.24252 -0.954003 8.75775 -12.0381 -1.70629 -4.83191 -0.118238 0.0462048 0.000530888 0.662642 -3.90073 -3.42926 -1.12936 1.23799 9.4319 -1.26714 -1.84472 5.69855 -0.841575 -28.5273 -3.32085 13.0781 -65.7472 -55.4488 -47.1371 -128.877 86.0945 132.448 7.41383 9.12409 -8.23009 26.2691 -0.639996 -6.14648 40.7509 -35.5842 17.7397 -0.232891 49.7916 8.91734 -1.12717 9.8749 3.5752 -2.04265 -0.78827 1.05376 1.22491 9.22352 15.9878 4.54706 -5.64341 -0.0653125 -1.34285e-009 8.75234e-006 -1.47603e-008 
-214.369 104.827 51.7269 0.473918 0.4651 92.555 0.786513 1.47359 -1.24142 -0.950901 8.78617 -12.0609 -1.67496 -4.84498 -0.11824 0.0462048 0.000530888 0.662642 -3.90614 -3.47434 -1.14983 1.30076 9.51325 -1.30082 -1.7264 6.01967 -0.685601 -28.7196 -3.36382 13.1495 -66.2177 -55.3311 -47.2914 -132.604 85.9142 136.27 7.43024 9.10326 -8.56904 26.28 -0.646299 -6.16504 41.208 -35.3526 18.1053 -0.0476947 50.0897 8.76332 -1.28295 9.86368 3.21359 -2.05214 -0.807546 1.01669 1.25551 9.22884 16.0163 4.57249 -5.66183 -0.0653146 -1.34285e-009 8.75234e-006 -1.47603e-008 
-214.385 104.827 51.7094 0.426873 0.463456 92.4714 0.778071 1.36559 -1.21398 -0.974444 8.86559 -11.9959 -1.61981 -4.85725 -0.118243 0.0462048 0.000530888 0.662642 -3.86206 -3.55283 -1.11779 1.2556 9.54394 -1.25633 -1.59034 6.37477 -0.722306 -28.8461 -3.36147 13.1087 -66.5283 -55.2229 -46.9607 -135.095 85.7476 138.781 7.21903 9.1119 -8.87735 26.4329 -0.676949 -6.24692 41.671 -35.099 18.4634 0.107691 50.4519 8.69341 -1.32395 9.8612 3.00464 -2.0787 -0.889198 0.982959 1.27509 9.2843 16.134 4.54989 -5.6666 -0.0653152 -1.34285e-009 8.75234e-006 -1.47603e-008 
-214.394 104.827 51.6959 0.391303 0.490712 92.3597 0.748439 1.28166 -1.18611 -1.01622 8.92254 -11.9007 -1.58117 -4.8525 -0.118242 0.0462048 0.000530888 0.662642 -3.89328 -3.54705 -1.05967 1.2272 9.48345 -1.19031 -1.48497 6.73572 -0.820413 -28.9122 -3.36119 13.0903 -67.0746 -55.0116 -46.5066 -134.638 85.7889 138.338 6.97203 9.14472 -8.83459 26.7292 -0.723103 -6.36339 41.9882 -34.7662 18.6553 0.291271 50.871 8.74866 -1.30317 9.86227 3.14663 -2.11883 -0.950598 0.966811 1.27417 9.35454 16.2323 4.48417 -5.64935 -0.0653132 -1.34285e-009 8.75234e-006 -1.47603e-008 
